<svg width="194" height="194" viewBox="0 0 194 194" fill="none" xmlns="http://www.w3.org/2000/svg">
<g filter="url(#filter0_dd)">
<circle cx="97" cy="97" r="75" fill="#F6F6F6"/>
<circle cx="97" cy="97" r="74.5" stroke="white" stroke-opacity="0.5"/>
</g>
<path d="M137 90.9773L97 58.9608" stroke="#242424" stroke-width="4" stroke-linecap="round" stroke-linejoin="round"/>
<path d="M57 90.9773L97 58.9608" stroke="#242424" stroke-width="4" stroke-linecap="round" stroke-linejoin="round"/>
<path d="M69 135V82.9732" stroke="#242424" stroke-width="4" stroke-linecap="round"/>
<path d="M125 135V82.9732" stroke="#242424" stroke-width="4" stroke-linecap="round"/>
<path d="M69 135H125" stroke="#242424" stroke-width="4" stroke-linecap="round"/>
<path d="M97.2879 100.748L107.722 104.394V119.264C107.722 119.553 107.605 119.83 107.396 120.034C107.187 120.239 106.904 120.353 106.608 120.353H102.155C101.86 120.353 101.576 120.239 101.368 120.034C101.159 119.83 101.041 119.553 101.041 119.264V111.64H89.9075V119.264C89.9075 119.553 89.7902 119.83 89.5813 120.034C89.3725 120.239 89.0893 120.353 88.7941 120.353H84.3404C84.0452 120.353 83.762 120.239 83.5532 120.034C83.3444 119.83 83.227 119.553 83.227 119.264V104.703C80.6412 103.801 78.7734 101.406 78.7734 98.5701C78.7734 97.9924 79.008 97.4384 79.4257 97.0298C79.8433 96.6213 80.4097 96.3918 81.0002 96.3918C81.5908 96.3918 82.1572 96.6213 82.5748 97.0298C82.9924 97.4384 83.227 97.9924 83.227 98.5701C83.2281 99.1475 83.4631 99.701 83.8805 100.109C84.2978 100.518 84.8636 100.747 85.4538 100.748H97.2879ZM114.402 93.1244V95.3027C114.402 96.4581 113.933 97.5662 113.098 98.3833C112.263 99.2003 111.13 99.6593 109.949 99.6593H107.722V102.081L98.8147 98.9697V88.7677C98.8147 87.7977 100.013 87.3117 100.715 87.9978L102.613 89.8569H106.345C107.105 89.8569 107.998 90.396 108.337 91.0611L108.835 92.0352H113.289C113.584 92.0352 113.867 92.15 114.076 92.3542C114.285 92.5585 114.402 92.8355 114.402 93.1244ZM106.608 93.1244C106.608 92.9089 106.543 92.6984 106.421 92.5193C106.299 92.3401 106.125 92.2005 105.921 92.1181C105.718 92.0357 105.494 92.0141 105.278 92.0561C105.062 92.0982 104.864 92.2019 104.708 92.3542C104.552 92.5065 104.446 92.7006 104.403 92.9119C104.36 93.1232 104.382 93.3421 104.466 93.5412C104.551 93.7402 104.693 93.9103 104.877 94.03C105.06 94.1496 105.275 94.2135 105.495 94.2135C105.79 94.2135 106.074 94.0988 106.282 93.8945C106.491 93.6903 106.608 93.4132 106.608 93.1244Z" fill="#242424"/>
<path d="M91.7669 61.6964C91.2141 60.386 90.417 59.1985 89.4202 58.2005C88.4227 57.1994 87.2466 56.4039 85.9559 55.8571C84.6175 55.288 83.182 54.9966 81.7327 55C79.6995 55 77.7158 55.57 75.9919 56.6467C75.5794 56.9042 75.1876 57.1871 74.8165 57.4953C74.4453 57.1871 74.0535 56.9042 73.6411 56.6467C71.9172 55.57 69.9334 55 67.9002 55C66.4361 55 65.0174 55.2871 63.6771 55.8571C62.3821 56.406 61.2149 57.1956 60.2127 58.2005C59.2147 59.1974 58.4174 60.3852 57.8661 61.6964C57.2928 63.0602 57 64.5084 57 65.9988C57 67.4048 57.2804 68.8699 57.8372 70.3604C58.3032 71.6059 58.9714 72.8979 59.8251 74.2026C61.1778 76.2672 63.0378 78.4205 65.3473 80.6034C69.1746 84.2218 72.9647 86.7214 73.1256 86.8227L74.103 87.4645C74.536 87.7474 75.0928 87.7474 75.5258 87.4645L76.5033 86.8227C76.6641 86.7171 80.4501 84.2218 84.2815 80.6034C86.591 78.4205 88.451 76.2672 89.8038 74.2026C90.6575 72.8979 91.3297 71.6059 91.7916 70.3604C92.3484 68.8699 92.6288 67.4048 92.6288 65.9988C92.6329 64.5084 92.3401 63.0602 91.7669 61.6964Z" fill="#FFC41E"/>
<defs>
<filter id="filter0_dd" x="0" y="0" width="194" height="194" filterUnits="userSpaceOnUse" color-interpolation-filters="sRGB">
<feFlood flood-opacity="0" result="BackgroundImageFix"/>
<feColorMatrix in="SourceAlpha" type="matrix" values="0 0 0 0 0 0 0 0 0 0 0 0 0 0 0 0 0 0 127 0"/>
<feOffset dx="-6" dy="-6"/>
<feGaussianBlur stdDeviation="8"/>
<feColorMatrix type="matrix" values="0 0 0 0 1 0 0 0 0 1 0 0 0 0 1 0 0 0 0.77 0"/>
<feBlend mode="normal" in2="BackgroundImageFix" result="effect1_dropShadow"/>
<feColorMatrix in="SourceAlpha" type="matrix" values="0 0 0 0 0 0 0 0 0 0 0 0 0 0 0 0 0 0 127 0"/>
<feOffset dx="6" dy="6"/>
<feGaussianBlur stdDeviation="8"/>
<feColorMatrix type="matrix" values="0 0 0 0 0.879462 0 0 0 0 0.879462 0 0 0 0 0.879462 0 0 0 0.6 0"/>
<feBlend mode="normal" in2="effect1_dropShadow" result="effect2_dropShadow"/>
<feBlend mode="normal" in="SourceGraphic" in2="effect2_dropShadow" result="shape"/>
</filter>
</defs>
</svg>
