<svg width="194" height="194" viewBox="0 0 194 194" fill="none" xmlns="http://www.w3.org/2000/svg">
<g filter="url(#filter0_dd)">
<circle cx="97" cy="97" r="75" fill="#F6F6F6"/>
<circle cx="97" cy="97" r="74.5" stroke="white" stroke-opacity="0.5"/>
</g>
<path d="M70 109.347V79.0197C70 77.5573 70.5729 76.1548 71.5927 75.1207C72.6126 74.0866 73.9957 73.5057 75.438 73.5057V73.5057C76.8802 73.5057 78.2634 74.0866 79.2832 75.1207C80.303 76.1548 80.876 77.5573 80.876 79.0197V98.3186" stroke="black" stroke-width="4" stroke-linecap="round" stroke-linejoin="round"/>
<path d="M80.876 98.5V68.1731C80.876 66.7107 81.4738 65.3082 82.538 64.2741C83.6021 63.24 85.0454 62.6591 86.5504 62.6591C88.0553 62.6591 89.4987 63.24 90.5628 64.2741C91.627 65.3082 92.2248 66.7107 92.2248 68.1731V95.743" stroke="black" stroke-width="4" stroke-linecap="round" stroke-linejoin="round"/>
<path d="M103.101 95.8123V70.9708C103.101 69.5169 103.698 68.1224 104.763 67.0943C105.827 66.0662 107.27 65.4886 108.775 65.4886V65.4886C110.28 65.4886 111.723 66.0662 112.787 67.0943C113.852 68.1224 114.449 69.5169 114.449 70.9708V109.347" stroke="black" stroke-width="4" stroke-linecap="round" stroke-linejoin="round"/>
<path d="M92.2246 95.6704V62.5243C92.2246 61.0592 92.7975 59.654 93.8174 58.618C94.8372 57.582 96.2204 57 97.6626 57C99.1048 57 100.488 57.582 101.508 58.618C102.528 59.654 103.101 61.0592 103.101 62.5243V95.6704" stroke="black" stroke-width="4" stroke-linecap="round" stroke-linejoin="round"/>
<path d="M70 109.472C70 129.836 81.0896 140 96.3379 140C111.586 140 117.774 133.131 121.29 124.736L130.423 99.7588C131.577 96.6279 131.054 93.7243 128.366 92.1962C125.677 90.6663 122.144 91.4538 120.688 94.2221L114.359 109.472" stroke="black" stroke-width="4" stroke-linecap="round" stroke-linejoin="round"/>
<path fill-rule="evenodd" clip-rule="evenodd" d="M99.3461 112.139C99.4944 112.161 99.6442 112.172 99.7941 112.172C100.893 112.172 101.961 111.592 102.803 110.538C103.553 109.6 104.074 108.337 104.272 106.981C104.74 103.754 103.313 100.966 101.022 100.629C100.874 100.606 100.724 100.595 100.574 100.595C99.4763 100.597 98.4063 101.176 97.5655 102.228C96.8153 103.165 96.2916 104.429 96.0963 105.788C95.6277 109.015 97.0552 111.803 99.3461 112.139ZM90.8085 112.172C89.7101 112.172 88.6414 111.592 87.7993 110.538C87.0491 109.6 86.5254 108.337 86.33 106.982C85.8615 103.754 87.289 100.966 89.5799 100.63C89.7282 100.608 89.8779 100.597 90.0279 100.597C91.1255 100.597 92.1956 101.176 93.0364 102.228C93.7866 103.165 94.3103 104.429 94.5063 105.787C94.9748 109.015 93.5474 111.803 91.2565 112.139C91.1082 112.161 90.9584 112.172 90.8085 112.172ZM111.889 110.108C111.496 109.177 110.844 108.505 110.002 108.167L109.99 108.163C109.607 108.013 109.199 107.937 108.787 107.937H108.742C106.814 107.966 104.846 109.6 103.845 112.003C103.111 113.761 103.027 115.651 103.62 117.06C104.012 117.991 104.666 118.663 105.512 119.001L105.521 119.004C105.904 119.154 106.313 119.231 106.724 119.23C108.67 119.23 110.659 117.596 111.678 115.161C112.403 113.406 112.483 111.517 111.889 110.108ZM104.186 120.473C103.075 119.807 102.024 119.176 101.337 118.044C99.4433 114.911 98.2996 113.019 95.301 113.019C92.3024 113.019 91.1559 114.911 89.2578 118.044C88.5706 119.177 87.519 119.808 86.4049 120.476L86.4014 120.478L86.4013 120.478C85.1225 121.245 83.8012 122.036 83.2308 123.595C83.0091 124.157 82.8974 124.756 82.9017 125.359C82.9017 127.897 84.8834 129.961 87.3179 129.961C88.5741 129.961 89.911 129.527 91.3257 129.068C92.686 128.626 94.0922 128.169 95.3081 128.169C96.5239 128.169 97.9266 128.626 99.2819 129.068L99.3201 129.08C100.718 129.532 102.036 129.958 103.284 129.958C105.715 129.958 107.693 127.894 107.693 125.357C107.695 124.752 107.581 124.153 107.357 123.592C106.787 122.032 105.465 121.24 104.187 120.473L104.186 120.473ZM85.0907 119.001L85.0808 119.004C84.6982 119.154 84.2908 119.23 83.8798 119.23C81.9357 119.23 79.9477 117.595 78.9335 115.163C78.2011 113.406 78.1175 111.518 78.7106 110.106C79.102 109.175 79.7552 108.502 80.5974 108.167L80.6073 108.163C80.9906 108.013 81.3987 107.937 81.8104 107.937C83.7545 107.937 85.7425 109.572 86.7567 112.004C87.4892 113.762 87.5727 115.65 86.9796 117.061C86.5883 117.992 85.935 118.663 85.0907 119.001Z" fill="#FFC41E"/>
<defs>
<filter id="filter0_dd" x="0" y="0" width="194" height="194" filterUnits="userSpaceOnUse" color-interpolation-filters="sRGB">
<feFlood flood-opacity="0" result="BackgroundImageFix"/>
<feColorMatrix in="SourceAlpha" type="matrix" values="0 0 0 0 0 0 0 0 0 0 0 0 0 0 0 0 0 0 127 0"/>
<feOffset dx="-6" dy="-6"/>
<feGaussianBlur stdDeviation="8"/>
<feColorMatrix type="matrix" values="0 0 0 0 1 0 0 0 0 1 0 0 0 0 1 0 0 0 0.77 0"/>
<feBlend mode="normal" in2="BackgroundImageFix" result="effect1_dropShadow"/>
<feColorMatrix in="SourceAlpha" type="matrix" values="0 0 0 0 0 0 0 0 0 0 0 0 0 0 0 0 0 0 127 0"/>
<feOffset dx="6" dy="6"/>
<feGaussianBlur stdDeviation="8"/>
<feColorMatrix type="matrix" values="0 0 0 0 0.879462 0 0 0 0 0.879462 0 0 0 0 0.879462 0 0 0 0.6 0"/>
<feBlend mode="normal" in2="effect1_dropShadow" result="effect2_dropShadow"/>
<feBlend mode="normal" in="SourceGraphic" in2="effect2_dropShadow" result="shape"/>
</filter>
</defs>
</svg>
