<svg width="194" height="194" viewBox="0 0 194 194" fill="none" xmlns="http://www.w3.org/2000/svg">
<g filter="url(#filter0_dd)">
<circle cx="97" cy="97" r="75" fill="#F6F6F6"/>
<circle cx="97" cy="97" r="74.5" stroke="white" stroke-opacity="0.5"/>
</g>
<path d="M89.6852 76.7643L105.632 82.2758V104.759C105.632 105.196 105.453 105.615 105.134 105.924C104.815 106.233 104.382 106.406 103.931 106.406H97.1238C96.6725 106.406 96.2396 106.233 95.9205 105.924C95.6014 105.615 95.4221 105.196 95.4221 104.759V93.232H78.4049V104.759C78.4049 105.196 78.2256 105.615 77.9065 105.924C77.5873 106.233 77.1545 106.406 76.7032 106.406H69.8963C69.445 106.406 69.0121 106.233 68.693 105.924C68.3739 105.615 68.1946 105.196 68.1946 104.759V82.7431C64.2423 81.3794 61.3877 77.7585 61.3877 73.4707C61.3877 72.5972 61.7463 71.7595 62.3845 71.1418C63.0228 70.5242 63.8885 70.1772 64.7911 70.1772C65.6938 70.1772 66.5595 70.5242 67.1977 71.1418C67.836 71.7595 68.1946 72.5972 68.1946 73.4707C68.1963 74.3437 68.5554 75.1805 69.1933 75.7978C69.8312 76.4151 70.6959 76.7626 71.598 76.7643H89.6852ZM115.843 65.2368V68.5304C115.843 70.2774 115.126 71.9528 113.849 73.1882C112.572 74.4235 110.841 75.1175 109.036 75.1175H105.632V78.7795L92.0186 74.0749V58.6497C92.0186 57.1831 93.8501 56.4482 94.9233 57.4857L97.8247 60.2965H103.529C104.689 60.2965 106.055 61.1116 106.573 62.1172L107.334 63.59H114.141C114.592 63.59 115.025 63.7635 115.344 64.0724C115.663 64.3812 115.843 64.8001 115.843 65.2368ZM103.931 65.2368C103.931 64.9111 103.831 64.5927 103.644 64.3219C103.457 64.0511 103.191 63.84 102.88 63.7154C102.569 63.5908 102.227 63.5582 101.897 63.6217C101.567 63.6852 101.264 63.8421 101.026 64.0724C100.788 64.3027 100.626 64.5961 100.56 64.9156C100.494 65.235 100.528 65.5661 100.657 65.867C100.786 66.1679 101.004 66.4251 101.284 66.6061C101.563 66.787 101.892 66.8836 102.229 66.8836C102.68 66.8836 103.113 66.7101 103.432 66.4013C103.751 66.0924 103.931 65.6736 103.931 65.2368Z" fill="#242424"/>
<path d="M75.1032 86.5312C71.638 86.5312 68.4373 88.2503 66.5101 91.1145L59.2969 101.812C58.448 103.074 57.9966 104.557 58 106.074V123.123C57.9953 124.265 58.3756 125.377 59.0806 126.28C59.7856 127.183 60.7747 127.826 61.8907 128.108L68.6189 129.798C69.1027 132.111 70.3736 134.189 72.2183 135.682C74.063 137.175 76.3692 137.994 78.75 138C83.5537 138 87.5636 134.703 88.7204 130.28H112.873C114.03 134.703 118.04 138 122.844 138C127.647 138 131.657 134.703 132.814 130.28H135.812C138.65 130.28 141 127.948 141 125.133V115.724C140.998 113.43 140.223 111.203 138.798 109.397C137.374 107.59 135.382 106.307 133.138 105.752L119.114 102.214L108.983 90.2319C108.014 89.0748 106.8 88.1434 105.427 87.5039C104.055 86.8644 102.557 86.5323 101.041 86.5312H75.1032ZM75.1032 91.6781H86.5313V101.972H65.4571L70.808 94.0097V93.9299C71.2779 93.2296 71.9167 92.6568 72.6663 92.2636C73.416 91.8704 74.2527 91.6691 75.1006 91.6781H75.1032ZM91.7188 91.6781H101.041C102.579 91.6781 104.029 92.3524 105.012 93.5284L112.145 101.972H91.7188V91.6781ZM63.1875 107.119H117.332L131.922 110.737C133.041 111.013 134.035 111.655 134.741 112.56C135.447 113.465 135.824 114.58 135.812 115.724V125.133H132.814C131.657 120.709 127.647 117.412 122.844 117.412C118.04 117.412 114.03 120.709 112.873 125.133H88.7204C87.5636 120.709 83.5537 117.412 78.75 117.412C74.1513 117.412 70.2892 120.429 68.9431 124.569L63.1875 123.126V107.119ZM78.75 122.559C81.6473 122.559 83.9375 124.832 83.9375 127.706C83.9375 130.581 81.6473 132.853 78.75 132.853C75.8528 132.853 73.5625 130.581 73.5625 127.706C73.5625 124.832 75.8528 122.559 78.75 122.559ZM122.844 122.559C125.741 122.559 128.031 124.832 128.031 127.706C128.031 130.581 125.741 132.853 122.844 132.853C119.947 132.853 117.656 130.581 117.656 127.706C117.656 124.832 119.947 122.559 122.844 122.559Z" fill="#FFC41E"/>
<defs>
<filter id="filter0_dd" x="0" y="0" width="194" height="194" filterUnits="userSpaceOnUse" color-interpolation-filters="sRGB">
<feFlood flood-opacity="0" result="BackgroundImageFix"/>
<feColorMatrix in="SourceAlpha" type="matrix" values="0 0 0 0 0 0 0 0 0 0 0 0 0 0 0 0 0 0 127 0"/>
<feOffset dx="-6" dy="-6"/>
<feGaussianBlur stdDeviation="8"/>
<feColorMatrix type="matrix" values="0 0 0 0 1 0 0 0 0 1 0 0 0 0 1 0 0 0 0.77 0"/>
<feBlend mode="normal" in2="BackgroundImageFix" result="effect1_dropShadow"/>
<feColorMatrix in="SourceAlpha" type="matrix" values="0 0 0 0 0 0 0 0 0 0 0 0 0 0 0 0 0 0 127 0"/>
<feOffset dx="6" dy="6"/>
<feGaussianBlur stdDeviation="8"/>
<feColorMatrix type="matrix" values="0 0 0 0 0.879462 0 0 0 0 0.879462 0 0 0 0 0.879462 0 0 0 0.6 0"/>
<feBlend mode="normal" in2="effect1_dropShadow" result="effect2_dropShadow"/>
<feBlend mode="normal" in="SourceGraphic" in2="effect2_dropShadow" result="shape"/>
</filter>
</defs>
</svg>
