<svg width="194" height="194" viewBox="0 0 194 194" fill="none" xmlns="http://www.w3.org/2000/svg">
<g filter="url(#filter0_dd)">
<path d="M172 97C172 138.421 138.421 172 97 172C55.5786 172 22 138.421 22 97C22 55.5786 55.5786 22 97 22C138.421 22 172 55.5786 172 97Z" fill="#F6F6F6"/>
<path d="M171.5 97C171.5 138.145 138.145 171.5 97 171.5C55.8548 171.5 22.5 138.145 22.5 97C22.5 55.8548 55.8548 22.5 97 22.5C138.145 22.5 171.5 55.8548 171.5 97Z" stroke="white" stroke-opacity="0.5"/>
</g>
<mask id="path-3-inside-1" fill="white">
<path fill-rule="evenodd" clip-rule="evenodd" d="M81.8303 58H66.8814V71.846L53 71.846V86.757H66.8814V100.603H81.8303V86.757H95.7111V71.846L81.8303 71.846V58Z"/>
</mask>
<path d="M66.8814 58V54H62.8814V58H66.8814ZM81.8303 58H85.8303V54H81.8303V58ZM66.8814 71.846V75.846L70.8814 75.846V71.846H66.8814ZM53 71.846L53 67.846H49V71.846H53ZM53 86.757H49V90.757H53V86.757ZM66.8814 86.757H70.8814V82.757H66.8814V86.757ZM66.8814 100.603H62.8814V104.603H66.8814V100.603ZM81.8303 100.603V104.603H85.8303V100.603H81.8303ZM81.8303 86.757V82.757H77.8303V86.757H81.8303ZM95.7111 86.757V90.757H99.7111V86.757H95.7111ZM95.7111 71.846H99.7111V67.846H95.7111V71.846ZM81.8303 71.846H77.8303V75.846H81.8303V71.846ZM66.8814 62H81.8303V54H66.8814V62ZM70.8814 71.846V58H62.8814V71.846H70.8814ZM53 75.846H66.8814V67.846L53 67.846L53 75.846ZM57 86.757V71.846H49V86.757H57ZM66.8814 82.757H53V90.757H66.8814V82.757ZM70.8814 100.603V86.757H62.8814V100.603H70.8814ZM81.8303 96.603H66.8814V104.603H81.8303V96.603ZM77.8303 86.757V100.603H85.8303V86.757H77.8303ZM95.7111 82.757H81.8303V90.757H95.7111V82.757ZM91.7111 71.846V86.757H99.7111V71.846H91.7111ZM81.8303 75.846L95.7111 75.846V67.846L81.8303 67.846V75.846ZM77.8303 58V71.846H85.8303V58H77.8303Z" fill="#FFC41E" mask="url(#path-3-inside-1)"/>
<path d="M96.7445 95.9577L115.574 102.473V129.053C115.574 129.57 115.362 130.065 114.985 130.43C114.608 130.795 114.097 131 113.564 131H105.527C104.995 131 104.483 130.795 104.107 130.43C103.73 130.065 103.518 129.57 103.518 129.053V115.426H83.4256V129.053C83.4256 129.57 83.2139 130.065 82.8371 130.43C82.4603 130.795 81.9492 131 81.4163 131H73.3793C72.8464 131 72.3354 130.795 71.9585 130.43C71.5817 130.065 71.37 129.57 71.37 129.053V103.026C66.7035 101.414 63.333 97.133 63.333 92.0641C63.333 91.0314 63.7564 90.0411 64.51 89.3109C65.2636 88.5807 66.2857 88.1705 67.3515 88.1705C68.4173 88.1705 69.4394 88.5807 70.193 89.3109C70.9467 90.0411 71.37 91.0314 71.37 92.0641C71.372 93.0961 71.7961 94.0853 72.5492 94.8151C73.3024 95.5449 74.3234 95.9557 75.3886 95.9577H96.7445ZM127.629 82.3301V86.2237C127.629 88.289 126.783 90.2697 125.275 91.73C123.768 93.1904 121.724 94.0109 119.592 94.0109H115.574V98.3401L99.4997 92.7783V74.5429C99.4997 72.809 101.662 71.9403 102.929 73.1668L106.355 76.4897H113.09C114.46 76.4897 116.072 77.4534 116.684 78.6421L117.583 80.3833H125.62C126.153 80.3833 126.664 80.5884 127.041 80.9535C127.418 81.3186 127.629 81.8138 127.629 82.3301ZM113.564 82.3301C113.564 81.945 113.447 81.5686 113.226 81.2485C113.005 80.9284 112.691 80.6788 112.324 80.5315C111.957 80.3841 111.553 80.3456 111.163 80.4207C110.773 80.4958 110.415 80.6812 110.134 80.9535C109.853 81.2258 109.662 81.5726 109.585 81.9503C109.507 82.3279 109.547 82.7194 109.699 83.0751C109.851 83.4308 110.109 83.7349 110.439 83.9488C110.769 84.1627 111.158 84.2769 111.555 84.2769C112.088 84.2769 112.599 84.0718 112.976 83.7067C113.353 83.3416 113.564 82.8464 113.564 82.3301Z" fill="#242424"/>
<path d="M146 118.975C146 125.675 140.483 131 133.542 131H122.865C115.924 131 110.407 125.675 110.407 118.975V113.821H146V118.975Z" fill="#FFC41E"/>
<defs>
<filter id="filter0_dd" x="0" y="0" width="194" height="194" filterUnits="userSpaceOnUse" color-interpolation-filters="sRGB">
<feFlood flood-opacity="0" result="BackgroundImageFix"/>
<feColorMatrix in="SourceAlpha" type="matrix" values="0 0 0 0 0 0 0 0 0 0 0 0 0 0 0 0 0 0 127 0"/>
<feOffset dx="-6" dy="-6"/>
<feGaussianBlur stdDeviation="8"/>
<feColorMatrix type="matrix" values="0 0 0 0 1 0 0 0 0 1 0 0 0 0 1 0 0 0 0.77 0"/>
<feBlend mode="normal" in2="BackgroundImageFix" result="effect1_dropShadow"/>
<feColorMatrix in="SourceAlpha" type="matrix" values="0 0 0 0 0 0 0 0 0 0 0 0 0 0 0 0 0 0 127 0"/>
<feOffset dx="6" dy="6"/>
<feGaussianBlur stdDeviation="8"/>
<feColorMatrix type="matrix" values="0 0 0 0 0.879462 0 0 0 0 0.879462 0 0 0 0 0.879462 0 0 0 0.6 0"/>
<feBlend mode="normal" in2="effect1_dropShadow" result="effect2_dropShadow"/>
<feBlend mode="normal" in="SourceGraphic" in2="effect2_dropShadow" result="shape"/>
</filter>
</defs>
</svg>
