<svg width="57" height="57" viewBox="0 0 57 57" fill="none" xmlns="http://www.w3.org/2000/svg">
<g filter="url(#filter0_d)">
<circle cx="28.5" cy="24.5" r="23.5" stroke="white" stroke-width="2"/>
<path d="M28.4964 19.9981C26.0175 19.9981 23.9945 22.0211 23.9945 24.5C23.9945 26.9789 26.0175 29.0019 28.4964 29.0019C30.9752 29.0019 32.9982 26.9789 32.9982 24.5C32.9982 22.0211 30.9752 19.9981 28.4964 19.9981ZM41.9985 24.5C41.9985 22.6357 42.0154 20.7884 41.9107 18.9275C41.806 16.766 41.3129 14.8477 39.7324 13.2672C38.1485 11.6832 36.2336 11.1935 34.0722 11.0888C32.2079 10.9841 30.3606 11.001 28.4997 11.001C26.6355 11.001 24.7882 10.9841 22.9273 11.0888C20.7659 11.1935 18.8477 11.6866 17.2671 13.2672C15.6832 14.8511 15.1935 16.766 15.0888 18.9275C14.9841 20.7917 15.001 22.6391 15.001 24.5C15.001 26.3609 14.9841 28.2116 15.0888 30.0725C15.1935 32.234 15.6866 34.1523 17.2671 35.7328C18.851 37.3168 20.7659 37.8065 22.9273 37.9112C24.7916 38.0159 26.6389 37.999 28.4997 37.999C30.364 37.999 32.2113 38.0159 34.0722 37.9112C36.2336 37.8065 38.1518 37.3134 39.7324 35.7328C41.3163 34.1489 41.806 32.234 41.9107 30.0725C42.0188 28.2116 41.9985 26.3643 41.9985 24.5ZM28.4964 31.4268C24.6632 31.4268 21.5697 28.3332 21.5697 24.5C21.5697 20.6668 24.6632 17.5732 28.4964 17.5732C32.3295 17.5732 35.423 20.6668 35.423 24.5C35.423 28.3332 32.3295 31.4268 28.4964 31.4268ZM35.7067 18.9072C34.8118 18.9072 34.089 18.1845 34.089 17.2895C34.089 16.3945 34.8118 15.6718 35.7067 15.6718C36.6017 15.6718 37.3244 16.3945 37.3244 17.2895C37.3247 17.502 37.283 17.7125 37.2018 17.9089C37.1206 18.1053 37.0015 18.2837 36.8512 18.434C36.7009 18.5843 36.5225 18.7034 36.3261 18.7846C36.1297 18.8658 35.9192 18.9075 35.7067 18.9072Z" fill="white"/>
</g>
<defs>
<filter id="filter0_d" x="0" y="0" width="57" height="57" filterUnits="userSpaceOnUse" color-interpolation-filters="sRGB">
<feFlood flood-opacity="0" result="BackgroundImageFix"/>
<feColorMatrix in="SourceAlpha" type="matrix" values="0 0 0 0 0 0 0 0 0 0 0 0 0 0 0 0 0 0 127 0"/>
<feOffset dy="4"/>
<feGaussianBlur stdDeviation="2"/>
<feColorMatrix type="matrix" values="0 0 0 0 0 0 0 0 0 0 0 0 0 0 0 0 0 0 0.25 0"/>
<feBlend mode="normal" in2="BackgroundImageFix" result="effect1_dropShadow"/>
<feBlend mode="normal" in="SourceGraphic" in2="effect1_dropShadow" result="shape"/>
</filter>
</defs>
</svg>
