<svg width="150" height="150" xmlns="http://www.w3.org/2000/svg">

 <g>
  <title>Layer 1</title>
  <path id="svg_1" fill="#FFC41E" d="m75,148c40.317,0 73,-32.683 73,-73c0,-40.3168 -32.683,-73 -73,-73c-40.3168,0 -73,32.6832 -73,73c0,40.317 32.6832,73 73,73zm0,2c41.421,0 75,-33.579 75,-75c0,-41.4214 -33.579,-75 -75,-75c-41.4214,0 -75,33.5786 -75,75c0,41.421 33.5786,75 75,75z" clip-rule="evenodd" fill-rule="evenodd"/>
  <path id="svg_2" fill="#242424" d="m73.4386,35.711c0.6903,-0.8623 1.9489,-1.0019 2.8113,-0.3116l40.0001,32.0165c0.862,0.6902 1.002,1.9488 0.312,2.8112c-0.691,0.8623 -1.949,1.0019 -2.812,0.3116l-39.9997,-32.0165c-0.8624,-0.6902 -1.0019,-1.9488 -0.3117,-2.8112z" clip-rule="evenodd" fill-rule="evenodd"/>
  <path id="svg_3" fill="#242424" d="m76.5615,35.711c0.6902,0.8624 0.5507,2.121 -0.3116,2.8112l-40,32.0165c-0.8624,0.6903 -2.121,0.5507 -2.8112,-0.3116c-0.6903,-0.8624 -0.5508,-2.121 0.3116,-2.8112l40,-32.0165c0.8623,-0.6903 2.121,-0.5507 2.8112,0.3116z" clip-rule="evenodd" fill-rule="evenodd"/>
  <path id="svg_4" fill="#242424" d="m47,58.9732c1.1046,0 2,0.8954 2,2l0,52.0268c0,1.105 -0.8954,2 -2,2c-1.1046,0 -2,-0.895 -2,-2l0,-52.0268c0,-1.1046 0.8954,-2 2,-2z" clip-rule="evenodd" fill-rule="evenodd"/>
  <path id="svg_5" fill="#242424" d="m103,58.9732c1.105,0 2,0.8954 2,2l0,52.0268c0,1.105 -0.895,2 -2,2c-1.105,0 -2,-0.895 -2,-2l0,-52.0268c0,-1.1046 0.895,-2 2,-2z" clip-rule="evenodd" fill-rule="evenodd"/>
  <path id="svg_6" fill="#242424" d="m45,113c0,-1.105 0.8954,-2 2,-2l56,0c1.105,0 2,0.895 2,2c0,1.105 -0.895,2 -2,2l-56,0c-1.1046,0 -2,-0.895 -2,-2z" clip-rule="evenodd" fill-rule="evenodd"/>
  <path id="svg_7" fill="#242424" d="m75.2879,78.7485l10.434,3.6452l0,14.8704c0,0.2889 -0.1173,0.5659 -0.3261,0.7702c-0.2088,0.2042 -0.492,0.319 -0.7873,0.319l-4.4536,0c-0.2953,0 -0.5785,-0.1148 -0.7873,-0.319c-0.2088,-0.2043 -0.3261,-0.4813 -0.3261,-0.7702l0,-7.6241l-11.134,0l0,7.6241c0,0.2889 -0.1173,0.5659 -0.3262,0.7702c-0.2088,0.2042 -0.492,0.319 -0.7872,0.319l-4.4537,0c-0.2952,0 -0.5784,-0.1148 -0.7872,-0.319c-0.2088,-0.2043 -0.3262,-0.4813 -0.3262,-0.7702l0,-14.5613c-2.5858,-0.902 -4.4536,-3.2968 -4.4536,-6.1327c0,-0.5777 0.2346,-1.1317 0.6523,-1.5403c0.4176,-0.4085 0.984,-0.638 1.5745,-0.638c0.5906,0 1.157,0.2295 1.5746,0.638c0.4176,0.4086 0.6522,0.9626 0.6522,1.5403c0.0011,0.5774 0.2361,1.1309 0.6535,1.5392c0.4173,0.4082 0.9831,0.6381 1.5733,0.6392l11.8341,0zm17.1144,-7.6241l0,2.1783c0,1.1554 -0.4692,2.2635 -1.3044,3.0806c-0.8352,0.817 -1.968,1.276 -3.1492,1.276l-2.2268,0l0,2.422l-8.9072,-3.1116l0,-10.202c0,-0.97 1.1983,-1.456 1.9004,-0.7699l1.8984,1.8591l3.7319,0c0.7592,0 1.6528,0.5391 1.9916,1.2042l0.4983,0.9741l4.4536,0c0.2953,0 0.5785,0.1148 0.7873,0.319c0.2088,0.2043 0.3261,0.4813 0.3261,0.7702zm-7.7938,0c0,-0.2155 -0.0653,-0.426 -0.1877,-0.6051c-0.1223,-0.1792 -0.2962,-0.3188 -0.4996,-0.4012c-0.2035,-0.0824 -0.4274,-0.104 -0.6433,-0.062c-0.216,0.0421 -0.4144,0.1458 -0.5701,0.2981c-0.1557,0.1523 -0.2618,0.3464 -0.3047,0.5577c-0.043,0.2113 -0.0209,0.4302 0.0633,0.6293c0.0843,0.199 0.227,0.3691 0.4101,0.4888c0.1831,0.1196 0.3984,0.1835 0.6186,0.1835c0.2953,0 0.5785,-0.1147 0.7873,-0.319c0.2088,-0.2042 0.3261,-0.4813 0.3261,-0.7701z"/>
  <path id="svg_8" fill="#FFC41E" d="m69.7669,39.6964c-0.5528,-1.3104 -1.3499,-2.4979 -2.3467,-3.4959c-0.9975,-1.0011 -2.1736,-1.7966 -3.4643,-2.3434c-1.3384,-0.5691 -2.7739,-0.8605 -4.2232,-0.8571c-2.0332,0 -4.0169,0.57 -5.7408,1.6467c-0.4125,0.2575 -0.8043,0.5404 -1.1754,0.8486c-0.3712,-0.3082 -0.763,-0.5911 -1.1754,-0.8486c-1.7239,-1.0767 -3.7077,-1.6467 -5.7409,-1.6467c-1.4641,0 -2.8828,0.2871 -4.2231,0.8571c-1.295,0.5489 -2.4622,1.3385 -3.4644,2.3434c-0.998,0.9969 -1.7953,2.1847 -2.3466,3.4959c-0.5733,1.3638 -0.8661,2.812 -0.8661,4.3024c0,1.406 0.2804,2.8711 0.8372,4.3616c0.466,1.2455 1.1342,2.5375 1.9879,3.8422c1.3527,2.0646 3.2127,4.2179 5.5222,6.4008c3.8273,3.6184 7.6174,6.118 7.7783,6.2193l0.9774,0.6418c0.433,0.2829 0.9898,0.2829 1.4228,0l0.9775,-0.6418c0.1608,-0.1056 3.9468,-2.6009 7.7782,-6.2193c2.3095,-2.1829 4.1695,-4.3362 5.5223,-6.4008c0.8537,-1.3047 1.5259,-2.5967 1.9878,-3.8422c0.5568,-1.4905 0.8372,-2.9556 0.8372,-4.3616c0.0041,-1.4904 -0.2887,-2.9386 -0.8619,-4.3024z"/>
 </g>
</svg>