<svg width="57" height="57" viewBox="0 0 57 57" fill="none" xmlns="http://www.w3.org/2000/svg">
<g filter="url(#filter0_d)">
<circle cx="28.5" cy="24.5" r="23.5" stroke="white" stroke-width="2"/>
<path d="M42.3122 19.219C42.5218 18.5157 42.3122 18 41.3211 18H38.0379C37.2025 18 36.8207 18.4461 36.6111 18.9361C36.6111 18.9361 34.9418 23.0482 32.5764 25.7145C31.8128 26.4903 31.464 26.7353 31.0478 26.7353C30.8397 26.7353 30.5373 26.4903 30.5373 25.7871V19.219C30.5373 18.3751 30.2963 18 29.6001 18H24.441C23.92 18 23.6056 18.3902 23.6056 18.7622C23.6056 19.5607 24.7883 19.7453 24.9096 21.9956V26.8775C24.9096 27.9467 24.7195 28.1418 24.3003 28.1418C23.1879 28.1418 20.4811 24.0146 18.8747 19.29C18.5618 18.372 18.2459 18.0015 17.4075 18.0015H14.1258C13.1871 18.0015 13 18.4477 13 18.9377C13 19.8178 14.1124 24.1734 18.1815 29.934C20.8943 33.8676 24.7135 36 28.1928 36C30.2783 36 30.5358 35.5266 30.5358 34.71V31.7367C30.5358 30.79 30.7349 30.5994 31.3951 30.5994C31.8802 30.5994 32.7156 30.8474 34.6634 32.7424C36.8881 34.9897 37.2564 35.9985 38.5065 35.9985H41.7882C42.7254 35.9985 43.194 35.5251 42.9245 34.5905C42.6295 33.6604 41.5666 32.3068 40.1563 30.7053C39.3898 29.7918 38.2445 28.8088 37.8956 28.3173C37.4091 27.6836 37.5498 27.4038 37.8956 26.8412C37.8971 26.8427 41.896 21.1533 42.3122 19.219Z" fill="white"/>
</g>
<defs>
<filter id="filter0_d" x="0" y="0" width="57" height="57" filterUnits="userSpaceOnUse" color-interpolation-filters="sRGB">
<feFlood flood-opacity="0" result="BackgroundImageFix"/>
<feColorMatrix in="SourceAlpha" type="matrix" values="0 0 0 0 0 0 0 0 0 0 0 0 0 0 0 0 0 0 127 0"/>
<feOffset dy="4"/>
<feGaussianBlur stdDeviation="2"/>
<feColorMatrix type="matrix" values="0 0 0 0 0 0 0 0 0 0 0 0 0 0 0 0 0 0 0.25 0"/>
<feBlend mode="normal" in2="BackgroundImageFix" result="effect1_dropShadow"/>
<feBlend mode="normal" in="SourceGraphic" in2="effect1_dropShadow" result="shape"/>
</filter>
</defs>
</svg>
