<svg width="57" height="57" viewBox="0 0 57 57" fill="none" xmlns="http://www.w3.org/2000/svg">
<g filter="url(#filter0_d)">
<circle cx="28.5" cy="24.5" r="24.5" fill="#FFD458"/>
<circle cx="28.5" cy="24.5" r="23.5" stroke="white" stroke-width="2"/>
</g>
<path d="M42.3123 19.219C42.5219 18.5157 42.3123 18 41.3212 18H38.038C37.2026 18 36.8208 18.4461 36.6112 18.9361C36.6112 18.9361 34.9419 23.0482 32.5765 25.7145C31.813 26.4903 31.4641 26.7353 31.0479 26.7353C30.8398 26.7353 30.5374 26.4903 30.5374 25.7871V19.219C30.5374 18.3751 30.2964 18 29.6002 18H24.4411C23.9201 18 23.6057 18.3902 23.6057 18.7622C23.6057 19.5607 24.7885 19.7453 24.9097 21.9956V26.8775C24.9097 27.9467 24.7196 28.1418 24.3004 28.1418C23.188 28.1418 20.4812 24.0146 18.8748 19.29C18.5619 18.372 18.246 18.0015 17.4076 18.0015H14.126C13.1873 18.0015 13.0001 18.4477 13.0001 18.9377C13.0001 19.8178 14.1125 24.1734 18.1817 29.934C20.8944 33.8676 24.7136 36 28.1929 36C30.2784 36 30.5359 35.5266 30.5359 34.71V31.7367C30.5359 30.79 30.735 30.5994 31.3953 30.5994C31.8803 30.5994 32.7157 30.8474 34.6635 32.7424C36.8882 34.9897 37.2565 35.9985 38.5066 35.9985H41.7883C42.7255 35.9985 43.1941 35.5251 42.9246 34.5905C42.6297 33.6604 41.5667 32.3068 40.1564 30.7053C39.3899 29.7918 38.2446 28.8088 37.8958 28.3173C37.4092 27.6836 37.5499 27.4038 37.8958 26.8412C37.8973 26.8427 41.8961 21.1533 42.3123 19.219Z" fill="white"/>
<defs>
<filter id="filter0_d" x="0" y="0" width="57" height="57" filterUnits="userSpaceOnUse" color-interpolation-filters="sRGB">
<feFlood flood-opacity="0" result="BackgroundImageFix"/>
<feColorMatrix in="SourceAlpha" type="matrix" values="0 0 0 0 0 0 0 0 0 0 0 0 0 0 0 0 0 0 127 0"/>
<feOffset dy="4"/>
<feGaussianBlur stdDeviation="2"/>
<feColorMatrix type="matrix" values="0 0 0 0 0.441962 0 0 0 0 0.441962 0 0 0 0 0.441962 0 0 0 0.2 0"/>
<feBlend mode="normal" in2="BackgroundImageFix" result="effect1_dropShadow"/>
<feBlend mode="normal" in="SourceGraphic" in2="effect1_dropShadow" result="shape"/>
</filter>
</defs>
</svg>
